<?xml version="1.0" encoding="utf-8"?>
<!-- Generator: Adobe Illustrator 19.0.0, SVG Export Plug-In . SVG Version: 6.00 Build 0)  -->
<svg version="1.1" id="Layer_1" xmlns="http://www.w3.org/2000/svg" xmlns:xlink="http://www.w3.org/1999/xlink" x="0px" y="0px"
	 viewBox="-241 333 128 128" style="enable-background:new -241 333 128 128;" xml:space="preserve">
<style type="text/css">
	.st0{fill:#C2C0A6;}
	.st1{fill:#6A8C69;stroke:#5333ED;stroke-width:3;stroke-linecap:round;stroke-linejoin:round;}
	.st2{fill:#6A8C69;stroke:#2CD4D9;stroke-width:3;stroke-linecap:round;stroke-linejoin:round;}
</style>
<ellipse class="st0" cx="-179.3" cy="393.6" rx="55.3" ry="53.1"/>
<g>
	<path class="st1" d="M-201,397.5h45.2c8.2,0,14.8,6.4,14.8,14.4v0c0,8-6.6,14.4-14.8,14.4H-201c-8.2,0-14.8-6.4-14.8-14.4v0
		C-215.9,403.9-209.2,397.5-201,397.5z"/>
	<ellipse class="st1" cx="-156" cy="411.9" rx="7.8" ry="7.5"/>
	<path class="st1" d="M-258,306.3"/>
	<path class="st2" d="M-201,360.9h45.2c8.2,0,14.8,6.4,14.8,14.4v0c0,8-6.6,14.4-14.8,14.4H-201c-8.2,0-14.8-6.4-14.8-14.4v0
		C-215.9,367.4-209.2,360.9-201,360.9z"/>
	<ellipse class="st2" cx="-199" cy="375.4" rx="7.8" ry="7.5"/>
</g>
</svg>
