<?xml version="1.0" encoding="utf-8"?>
<!-- Generator: Adobe Illustrator 19.0.0, SVG Export Plug-In . SVG Version: 6.00 Build 0)  -->
<svg version="1.1" id="Layer_1" xmlns="http://www.w3.org/2000/svg" xmlns:xlink="http://www.w3.org/1999/xlink" x="0px" y="0px"
	 viewBox="-241 333 128 128" style="enable-background:new -241 333 128 128;" xml:space="preserve">
<style type="text/css">
	.st0{fill:#C2C0A6;}
	.st1{fill:#6A8C69;stroke:#5333ED;stroke-width:3;stroke-linecap:round;stroke-linejoin:round;}
	.st2{fill:#6A8C69;stroke:#2CD4D9;stroke-width:3;stroke-linecap:round;stroke-linejoin:round;}
</style>
<ellipse class="st0" cx="-175.1" cy="397.6" rx="52.6" ry="49.8"/>
<g>
	<path class="st1" d="M-194.7,400.1h41.2c7.5,0,13.5,6,13.5,13.4l0,0c0,7.4-6.1,13.4-13.5,13.4h-41.2c-7.5,0-13.5-6-13.5-13.4l0,0
		C-208.3,406.1-202.2,400.1-194.7,400.1z"/>
	<ellipse class="st1" cx="-153.7" cy="413.5" rx="7" ry="6.9"/>
	<path class="st1" d="M-246.7,315.5"/>
	<path class="st2" d="M-194.7,366.3h41.2c7.5,0,13.5,6,13.5,13.4l0,0c0,7.4-6.1,13.4-13.5,13.4h-41.2c-7.5,0-13.5-6-13.5-13.4l0,0
		C-208.3,372.3-202.2,366.3-194.7,366.3z"/>
	<ellipse class="st2" cx="-192.8" cy="379.7" rx="7.1" ry="7.1"/>
</g>
</svg>
